<?xml version="1.0" encoding="UTF-8"?>
<!DOCTYPE svg PUBLIC "-//W3C//DTD SVG 1.1//EN" "http://www.w3.org/Graphics/SVG/1.1/DTD/svg11.dtd">
<!-- Creator: CorelDRAW 2020 (64 Bit) -->
<svg xmlns="http://www.w3.org/2000/svg" xml:space="preserve" width="18.8876mm" height="7.4988mm" version="1.1" style="shape-rendering:geometricPrecision; text-rendering:geometricPrecision; image-rendering:optimizeQuality; fill-rule:evenodd; clip-rule:evenodd"
viewBox="0 0 1891.48 750.96"
 xmlns:xlink="http://www.w3.org/1999/xlink"
 xmlns:xodm="http://www.corel.com/coreldraw/odm/2003">
 <defs>
  <style type="text/css">
   <![CDATA[
    .fil1 {fill:#0A5687}
    .fil2 {fill:#EF774C}
    .fil0 {fill:#FEFEFE;fill-rule:nonzero}
   ]]>
  </style>
 </defs>
 <g id="Camada_x0020_1">
  <metadata id="CorelCorpID_0Corel-Layer"/>
  <path class="fil0" d="M1061.85 266.87c6.28,0 11.43,-5.14 11.43,-11.43 0,-6 -5.15,-11.15 -11.43,-11.15 -6.29,0 -11.43,5.15 -11.43,11.15 0,6.29 5.14,11.43 11.43,11.43zm-7.15 177.42l14.28 0 0 -142.85 -14.28 0 0 142.85z"/>
  <path id="_1" class="fil0" d="M1239.83 301.44l0 33.14c-11.72,-21.99 -33.71,-36.28 -61.42,-36.28 -40.86,0 -74,32.29 -74,74.57 0,42.28 33.14,74.57 74,74.57 27.71,0 49.7,-14.29 61.42,-36.28l0 26.28c0,32.58 -21.14,53.43 -56.85,53.43 -31.43,0 -47.43,-12.57 -54.85,-27.71l-12.58 7.14c10.28,20.86 34,34.28 67.43,34.28 39.43,0 71.13,-24.27 71.13,-67.14l0 -135.99 -14.28 0zm-60.57 132.27c-34,0 -60.57,-26.85 -60.57,-60.85 0,-34 26.57,-60.85 60.57,-60.85 34,0 60.57,26.85 60.57,60.85 0,34 -26.57,60.85 -60.57,60.85z"/>
  <path id="_2" class="fil0" d="M1312.38 329.44l0 -28 -14.28 0 0 142.85 14.28 0 0 -79.42c0,-36.56 23.14,-51.7 47.71,-51.7l0 -13.72c-19.43,0 -37.99,7.43 -47.71,30z"/>
  <path id="_3" class="fil0" d="M1444.66 298.31c-43.7,0 -73.99,32.57 -73.99,74.57 0,43.14 31.13,74.57 75.14,74.57 28.28,0 50.56,-12.86 62.28,-32.29l-12.58 -7.43c-8.28,15.14 -26,26 -49.42,26 -32.57,0 -57.14,-21.14 -60.57,-53.42l129.42 0c0,-2.28 0.29,-4.58 0.29,-6.86 0,-39.14 -27.14,-75.14 -70.57,-75.14zm0 13.72c28,0 52.58,19.42 55.71,54.28l-114.85 0c2.85,-31.72 26.57,-54.28 59.15,-54.28l-0.01 0z"/>
  <path id="_4" class="fil0" d="M1559.79 244.32c-6.29,0 -11.43,5.15 -11.43,11.15 0,6.29 5.14,11.43 11.43,11.43 6.29,0 11.43,-5.14 11.43,-11.43 0,-6 -5.14,-11.15 -11.43,-11.15zm-7.14 216.26c0,22.85 -10.58,32.57 -33.15,30.28l0 13.71c30.85,2.86 47.43,-13.71 47.43,-43.99l0 -159.13 -14.28 0 0 159.13z"/>
  <path id="_5" class="fil0" d="M1736.64 301.44l0 32.29c-12,-21.43 -34,-35.43 -61.43,-35.43 -40.57,0 -73.99,32.29 -73.99,74.57 0,42.28 33.42,74.57 73.99,74.57 27.43,0 49.43,-14 61.43,-35.43l0 32.29 14.57 0 0 -142.85 -14.57 0zm-60.29 132.27c-34,0 -60.57,-26.85 -60.57,-60.85 0,-34 26.57,-60.85 60.57,-60.85 33.99,0 60.28,26.85 60.28,60.85 0,34 -26.29,60.85 -60.28,60.85z"/>
  <path id="_6" class="fil0" d="M1804.92 338.89c0,-17.14 15.71,-26.85 34.28,-26.85 15.71,0 30.56,6.85 36.57,21.71l12 -6.86c-7.72,-17.43 -25.43,-28.57 -48.57,-28.57 -29.14,0 -48.57,18 -48.57,40.57 0,51.42 86.56,29.14 86.56,68 0,18 -16.85,26.85 -36.85,26.85 -21.43,0 -36.85,-9.7 -42,-25.14l-12.28 7.14c6.85,18.29 25.71,31.72 54.28,31.72 30.57,0 51.14,-17.14 51.14,-40.57 0,-52.29 -86.56,-29.71 -86.56,-68z"/>
  <path id="_7" class="fil0" d="M1061.85 266.87c6.28,0 11.43,-5.14 11.43,-11.43 0,-6 -5.15,-11.15 -11.43,-11.15 -6.29,0 -11.43,5.15 -11.43,11.15 0,6.29 5.14,11.43 11.43,11.43zm-7.15 177.42l14.28 0 0 -142.85 -14.28 0 0 142.85z"/>
  <path id="_8" class="fil0" d="M1239.83 301.44l0 33.14c-11.72,-21.99 -33.71,-36.28 -61.42,-36.28 -40.86,0 -74,32.29 -74,74.57 0,42.28 33.14,74.57 74,74.57 27.71,0 49.7,-14.29 61.42,-36.28l0 26.28c0,32.58 -21.14,53.43 -56.85,53.43 -31.43,0 -47.43,-12.57 -54.85,-27.71l-12.58 7.14c10.28,20.86 34,34.28 67.43,34.28 39.43,0 71.13,-24.27 71.13,-67.14l0 -135.99 -14.28 0zm-60.57 132.27c-34,0 -60.57,-26.85 -60.57,-60.85 0,-34 26.57,-60.85 60.57,-60.85 34,0 60.57,26.85 60.57,60.85 0,34 -26.57,60.85 -60.57,60.85z"/>
  <path id="_9" class="fil0" d="M1312.38 329.44l0 -28 -14.28 0 0 142.85 14.28 0 0 -79.42c0,-36.56 23.14,-51.7 47.71,-51.7l0 -13.72c-19.43,0 -37.99,7.43 -47.71,30z"/>
  <path id="_10" class="fil0" d="M1444.66 298.31c-43.7,0 -73.99,32.57 -73.99,74.57 0,43.14 31.13,74.57 75.14,74.57 28.28,0 50.56,-12.86 62.28,-32.29l-12.58 -7.43c-8.28,15.14 -26,26 -49.42,26 -32.57,0 -57.14,-21.14 -60.57,-53.42l129.42 0c0,-2.28 0.29,-4.58 0.29,-6.86 0,-39.14 -27.14,-75.14 -70.57,-75.14zm0 13.72c28,0 52.58,19.42 55.71,54.28l-114.85 0c2.85,-31.72 26.57,-54.28 59.15,-54.28l-0.01 0z"/>
  <path id="_11" class="fil0" d="M1559.79 244.32c-6.29,0 -11.43,5.15 -11.43,11.15 0,6.29 5.14,11.43 11.43,11.43 6.29,0 11.43,-5.14 11.43,-11.43 0,-6 -5.14,-11.15 -11.43,-11.15zm-7.14 216.26c0,22.85 -10.58,32.57 -33.15,30.28l0 13.71c30.85,2.86 47.43,-13.71 47.43,-43.99l0 -159.13 -14.28 0 0 159.13z"/>
  <path id="_12" class="fil0" d="M1736.64 301.44l0 32.29c-12,-21.43 -34,-35.43 -61.43,-35.43 -40.57,0 -73.99,32.29 -73.99,74.57 0,42.28 33.42,74.57 73.99,74.57 27.43,0 49.43,-14 61.43,-35.43l0 32.29 14.57 0 0 -142.85 -14.57 0zm-60.29 132.27c-34,0 -60.57,-26.85 -60.57,-60.85 0,-34 26.57,-60.85 60.57,-60.85 33.99,0 60.28,26.85 60.28,60.85 0,34 -26.29,60.85 -60.28,60.85z"/>
  <path id="_13" class="fil0" d="M1804.92 338.89c0,-17.14 15.71,-26.85 34.28,-26.85 15.71,0 30.56,6.85 36.57,21.71l12 -6.86c-7.72,-17.43 -25.43,-28.57 -48.57,-28.57 -29.14,0 -48.57,18 -48.57,40.57 0,51.42 86.56,29.14 86.56,68 0,18 -16.85,26.85 -36.85,26.85 -21.43,0 -36.85,-9.7 -42,-25.14l-12.28 7.14c6.85,18.29 25.71,31.72 54.28,31.72 30.57,0 51.14,-17.14 51.14,-40.57 0,-52.29 -86.56,-29.71 -86.56,-68z"/>
  <g id="_1612172409408">
   <path class="fil1" d="M560.71 702.99l-75.07 -144.9c-487.48,142.86 -341.02,-569.52 8.75,-354.46 -32.04,34.46 -109.78,74.79 -153.63,88.1 13.63,59.85 48.6,101.82 76.42,151.83l315.04 -174.74c-61.64,-302.23 -538.58,-390.54 -696.59,-50.1 -149.42,321.92 199.11,659.5 525.08,484.28z"/>
   <path class="fil2" d="M734.96 486.53l-104.84 -46.16c-14.34,49.12 -27.2,75.02 -68.75,120.8l72.49 84.22c47.08,-39.59 81.15,-98.78 101.1,-158.87z"/>
  </g>
 </g>
</svg>
